<svg width="24" height="24" viewBox="0 0 24 24" fill="none" xmlns="http://www.w3.org/2000/svg">
<g id="simple-icons:comma" clip-path="url(#clip0_937_12400)">
<path id="Vector" d="M6.7277 24.0001C6.7277 23.4451 6.6837 22.9801 6.7477 22.5311C6.7747 22.3401 6.9977 22.1351 7.1807 22.0201C8.0677 21.4571 9.0307 21.0071 9.8577 20.3611C12.5337 18.2691 14.1197 15.5151 14.2067 11.9371C14.2307 10.9221 13.8567 10.6671 13.0047 11.0641C10.5417 12.2061 7.8927 11.5361 6.4797 9.41408C4.9387 7.09808 5.1557 4.01408 7.0027 1.99208C9.3607 -0.58992 13.2427 -0.66792 15.9197 1.80008C17.5227 3.27808 18.2847 5.18608 18.4747 7.35708C19.1117 14.6281 15.4647 20.6221 8.8257 23.2551C8.1687 23.5151 7.4957 23.7291 6.7277 24.0001Z" fill="#0F3FA7"/>
</g>
<defs>
<clipPath id="clip0_937_12400">
<rect width="24" height="24" fill="white" transform="translate(0.000732422)"/>
</clipPath>
</defs>
</svg>
