<svg width="24" height="24" viewBox="0 0 24 24" fill="none" xmlns="http://www.w3.org/2000/svg">
<g id="simple-icons:comma" clip-path="url(#clip0_937_12394)">
<path id="Vector" d="M17.2729 -6.10615e-05C17.2729 0.554939 17.3169 1.01994 17.2529 1.46894C17.2259 1.65994 17.0029 1.86494 16.8199 1.97995C15.933 2.54296 14.97 2.99297 14.143 3.63899C11.467 5.73102 9.88105 8.48505 9.7941 12.0631C9.77011 13.0781 10.1441 13.333 10.9961 12.936C13.4591 11.794 16.1081 12.464 17.5211 14.5859C19.0622 16.9019 18.8452 19.9859 16.9982 22.0079C14.6403 24.59 10.7583 24.668 8.08125 22.2001C6.47823 20.7221 5.7162 18.8141 5.52617 16.6431C4.88906 9.37213 8.53597 3.37807 15.1749 0.744971C15.8319 0.484961 16.5049 0.27095 17.2729 -6.10615e-05Z" fill="#0F3FA7"/>
</g>
<defs>
<clipPath id="clip0_937_12394">
<rect width="24" height="24" fill="white" transform="translate(24.0002 24) rotate(179.999)"/>
</clipPath>
</defs>
</svg>
