<svg width="81" height="30" viewBox="0 0 81 30" fill="none" xmlns="http://www.w3.org/2000/svg">
<g id="apple 1" clip-path="url(#clip0_1189_13440)">
<path id="Vector" d="M73.5779 0.09375H6.42945C5.93741 0.101089 5.44662 0.145544 4.96126 0.226738C4.47777 0.307261 4.00952 0.46148 3.57287 0.684146C3.13594 0.909431 2.73593 1.20009 2.38661 1.54597C2.03835 1.89326 1.74747 2.29366 1.52484 2.73222C1.30539 3.16974 1.15297 3.63796 1.07269 4.1208C0.988846 4.60582 0.944371 5.09669 0.939697 5.58887V23.8402C0.944138 24.3324 0.988614 24.8233 1.07269 25.3083C1.15297 25.7911 1.30539 26.2594 1.52484 26.6969C1.97623 27.5758 2.69274 28.2904 3.57287 28.7395C4.00921 28.964 4.47748 29.1202 4.96126 29.2024C5.44662 29.2836 5.93741 29.328 6.42945 29.3353H75.0514C75.5418 29.3287 76.0308 29.2843 76.5143 29.2024C77.0015 29.1201 77.4732 28.9639 77.9134 28.7395C78.3517 28.5191 78.7507 28.2279 79.0943 27.8777C79.444 27.5324 79.7367 27.134 79.9614 26.6969C80.1808 26.2594 80.3333 25.7911 80.4135 25.3083C80.495 24.823 80.5394 24.3323 80.5465 23.8402V5.58887C80.5392 5.09683 80.4947 4.60616 80.4135 4.1208C80.3333 3.63796 80.1808 3.16974 79.9614 2.73222C79.7368 2.29348 79.4442 1.89311 79.0943 1.54597C78.7479 1.19904 78.3494 0.908229 77.9134 0.684146C77.473 0.461383 77.0012 0.307187 76.5143 0.226738C76.0308 0.144828 75.5418 0.100367 75.0514 0.09375H73.5886H73.5779Z" fill="#BEBEBF"/>
<path id="Vector_2" d="M7.10512 28.7134H6.4455C5.9875 28.7088 5.53051 28.6695 5.07838 28.5963C4.65662 28.5239 4.24791 28.3894 3.86553 28.1973C3.48832 28.0038 3.1437 27.7526 2.84418 27.4526C2.54093 27.1547 2.28766 26.8098 2.09412 26.4313C1.90143 26.0496 1.76866 25.6404 1.70047 25.2183C1.62485 24.7646 1.58395 24.3058 1.57812 23.8458V5.62642C1.58386 5.16826 1.62476 4.7113 1.70047 4.2594C1.76951 3.83581 1.90223 3.42509 2.09412 3.0412C2.28758 2.66399 2.53886 2.31942 2.83885 2.01989C3.13851 1.71771 3.48525 1.46625 3.86553 1.27521C4.24505 1.08072 4.65238 0.946144 5.07306 0.876245C5.52681 0.800964 5.98559 0.760075 6.4455 0.753906H75.0356C75.4902 0.759896 75.9437 0.800789 76.3921 0.876245C76.8176 0.946923 77.2301 1.08143 77.6156 1.27521C77.9917 1.46777 78.3347 1.71913 78.6316 2.01989C78.9345 2.32012 79.1877 2.66678 79.3816 3.04666C79.5695 3.42611 79.7004 3.83109 79.77 4.24875C79.8459 4.70607 79.8886 5.16837 79.8976 5.63188V23.8565C79.8876 24.3109 79.8467 24.7642 79.7753 25.2131C79.7046 25.637 79.57 26.0477 79.3763 26.4313C79.1842 26.8064 78.9347 27.149 78.6369 27.4472C78.3373 27.7493 77.9905 28.0011 77.6102 28.1921C77.2279 28.3899 76.8168 28.5262 76.3921 28.5963C75.94 28.67 75.483 28.7092 75.0249 28.7134H7.10512Z" fill="black"/>
<path id="Vector_3" d="M31.0376 12.206H28.0746L27.3618 14.3339H26.1064L28.9151 6.55663H30.2184L33.0271 14.3339H31.7504L31.0376 12.206ZM28.3778 11.2325H30.7238L29.5694 7.82288H29.5375L28.3778 11.2325ZM39.0914 11.472C39.0914 13.2328 38.1445 14.3658 36.7242 14.3658C36.3635 14.3855 36.0046 14.3024 35.6891 14.1263C35.3737 13.9502 35.1147 13.6884 34.9421 13.371V16.1798H33.7772V8.63665H34.9049V9.57822C35.0868 9.26386 35.3506 9.00474 35.6682 8.8286C35.9858 8.65247 36.3453 8.566 36.7082 8.57821C38.1339 8.57821 39.0914 9.71656 39.0914 11.472ZM37.8945 11.472C37.8945 10.323 37.2987 9.56757 36.3944 9.56757C35.49 9.56757 34.9102 10.3389 34.9102 11.472C34.9102 12.6051 35.506 13.3764 36.3944 13.3764C37.2827 13.3764 37.8945 12.6317 37.8945 11.472ZM45.3259 11.472C45.3259 13.2328 44.3843 14.3658 42.964 14.3658C42.6027 14.3846 42.2434 14.3012 41.9273 14.1253C41.6112 13.9493 41.351 13.6879 41.1766 13.371H41.15V16.1798H39.9904V8.63665H41.1128V9.57822C41.2964 9.26422 41.5613 9.00565 41.8796 8.82964C42.198 8.65363 42.5579 8.56676 42.9214 8.57821C44.379 8.57821 45.3259 9.71656 45.3259 11.472ZM44.1343 11.472C44.1343 10.323 43.5385 9.56757 42.6342 9.56757C41.7299 9.56757 41.1447 10.3389 41.1447 11.472C41.1447 12.6051 41.7458 13.3764 42.6342 13.3764C43.5225 13.3764 44.1343 12.6317 44.1343 11.472ZM49.4485 12.1369C49.5389 12.9083 50.2837 13.4136 51.3103 13.4136C52.337 13.4136 52.9966 12.9082 52.9966 12.2167C52.9966 11.6103 52.5711 11.2486 51.5604 11.0039L50.555 10.7593C49.1293 10.4135 48.4644 9.74833 48.4644 8.66315C48.4644 7.32262 49.6347 6.40234 51.2944 6.40234C52.9541 6.40234 54.0606 7.32262 54.0978 8.66315H52.9275C52.853 7.88649 52.2147 7.41846 51.2784 7.41846C50.3422 7.41846 49.6826 7.89187 49.6826 8.5834C49.6826 9.11536 50.0922 9.456 51.0922 9.70601L51.9487 9.91329C53.5445 10.291 54.2095 10.9295 54.2095 12.0679C54.2095 13.5254 53.0498 14.4349 51.2093 14.4349C49.4804 14.4349 48.3208 13.5466 48.2463 12.1369H49.4485ZM56.7522 7.29612V8.63665H57.8161V9.55692H56.7522V12.6847C56.7522 13.1688 56.9703 13.3923 57.4438 13.3923C57.5718 13.39 57.6996 13.3812 57.8268 13.3658V14.2861C57.6127 14.3252 57.3953 14.3431 57.1778 14.3393C56.0288 14.3393 55.5819 13.9082 55.5819 12.8071V9.55692H54.7574V8.63665H55.5819V7.29612H56.7522ZM58.4385 11.472C58.4385 9.68996 59.5024 8.56756 61.1249 8.56756C62.7473 8.56756 63.8166 9.68996 63.8166 11.472C63.8166 13.254 62.7527 14.3765 61.1249 14.3765C59.4971 14.3765 58.4385 13.2594 58.4385 11.472ZM62.6303 11.472C62.6303 10.2485 62.0664 9.52497 61.1249 9.52497C60.1833 9.52497 59.6248 10.2538 59.6248 11.472C59.6248 12.6902 60.1833 13.4136 61.1249 13.4136C62.0664 13.4136 62.6303 12.7008 62.6303 11.472ZM64.7741 8.63665H65.8859V9.59952H65.9125C65.987 9.29842 66.1632 9.03238 66.4114 8.84626C66.6595 8.66015 66.9643 8.56545 67.2743 8.57821C67.4084 8.57764 67.5422 8.59196 67.6732 8.62081V9.71121C67.5019 9.65412 67.3217 9.62881 67.1413 9.63666C66.9719 9.63019 66.8032 9.6604 66.6466 9.72523C66.4901 9.79007 66.3494 9.88796 66.2342 10.0123C66.119 10.1365 66.032 10.2845 65.9792 10.4455C65.9265 10.6065 65.9091 10.7769 65.9284 10.9452V14.3074H64.7634L64.7741 8.63665ZM73.0353 12.6421C72.8811 13.6688 71.881 14.3765 70.599 14.3765C68.9499 14.3765 67.9392 13.2699 67.9392 11.4985C67.9392 9.72709 68.9712 8.56756 70.5617 8.56756C72.1523 8.56756 73.1204 9.63134 73.1204 11.3655V11.7593H69.1148V11.8338C69.0973 12.0419 69.1243 12.2512 69.1938 12.4481C69.2634 12.645 69.3741 12.825 69.5184 12.9759C69.6628 13.1268 69.8376 13.2452 70.0312 13.3235C70.2248 13.4017 70.4329 13.438 70.6415 13.4297C70.9157 13.4549 71.1908 13.3913 71.4264 13.2486C71.6619 13.106 71.8455 12.8917 71.9501 12.637L73.0353 12.6421ZM69.1042 10.9507H71.9395C71.9498 10.7627 71.9212 10.5746 71.8554 10.3982C71.7896 10.2218 71.6882 10.0611 71.5573 9.92576C71.4265 9.79042 71.2691 9.68341 71.095 9.61173C70.921 9.54004 70.734 9.50518 70.5458 9.50913C70.3563 9.50843 70.1685 9.54524 69.9933 9.61744C69.8181 9.68964 69.6589 9.79565 69.5249 9.92965C69.3909 10.0637 69.2847 10.223 69.2125 10.3982C69.1403 10.5734 69.1035 10.7612 69.1042 10.9507ZM27.5799 22.6111L27.6278 22.01C27.8526 22.0841 28.0879 22.1218 28.3246 22.1217C28.5374 22.1217 28.6172 22.1217 28.7236 21.9568C28.9743 21.4282 29.0825 20.8432 29.0375 20.2599C29.0375 19.6428 28.846 19.462 28.3566 19.462H27.9842C27.7228 20.5318 27.286 21.551 26.6915 22.4781L26.117 22.1695C26.6786 21.3641 27.0879 20.4627 27.3246 19.5097C26.947 19.5515 26.5722 19.6154 26.2021 19.7012L26.0798 19.0949C26.5391 19.0089 27.0025 18.9467 27.4682 18.9087C27.5637 18.45 27.6347 17.9866 27.681 17.5204L28.3566 17.6001C28.2927 18.0204 28.2182 18.4407 28.1225 18.8503H28.3938C29.2662 18.8503 29.6864 19.2864 29.6864 20.2066C29.7255 20.9118 29.5883 21.6157 29.2875 22.2547C29.2087 22.4012 29.0885 22.5211 28.9418 22.5997C28.7951 22.6782 28.6286 22.7119 28.4629 22.6963C28.1663 22.7026 27.8699 22.6739 27.5799 22.6111ZM29.7982 18.8874L30.2982 18.5523C30.9961 19.2239 31.4158 20.1336 31.4738 21.1004L30.8142 21.2015C30.8046 20.7727 30.7098 20.3501 30.5354 19.9583C30.361 19.5665 30.1103 19.2134 29.7982 18.9194V18.8874ZM33.7612 22.7282L33.6229 22.1056H34.1549C35.5167 22.1056 36.0326 21.7227 36.0326 21.1482C36.0326 20.696 35.7401 20.4355 35.0751 20.4355C34.3561 20.5021 33.6863 20.8294 33.192 21.3557L32.6601 21.1217C32.6601 19.8078 32.7984 19.2013 33.2452 18.5417L33.857 18.7386C33.472 19.2538 33.2833 19.8892 33.325 20.5311C33.876 20.1411 34.5283 19.9196 35.2028 19.8929C36.1284 19.8929 36.6976 20.3662 36.6976 21.1376C36.6976 22.1164 35.9263 22.7334 34.0751 22.7334L33.7612 22.7282ZM33.1175 18.1534L33.2931 17.5469C34.2077 17.6886 35.1109 17.8966 35.9954 18.1692L35.8305 18.7703C34.9463 18.4843 34.0384 18.278 33.1175 18.1534ZM38.7084 22.2547C39.418 22.0187 40.0553 21.6046 40.5596 21.0524C40.159 20.723 39.728 20.4328 39.2722 20.1853L39.6499 19.7118C40.1106 19.9458 40.5486 20.222 40.9585 20.5365C41.2908 20.0565 41.5208 19.5133 41.6341 18.9407H39.8787C39.4769 19.5953 38.9701 20.1794 38.3786 20.6695L37.8466 20.2386C38.6985 19.538 39.3576 18.6316 39.7616 17.6053L40.4213 17.7651C40.3468 17.9566 40.2723 18.1586 40.1819 18.3448H41.8895L42.3789 18.5682C42.0278 20.5524 40.8787 22.143 39.0807 22.7867L38.7084 22.2547ZM41.6128 17.4671L42.0012 17.2809C42.1976 17.5422 42.3619 17.8261 42.4906 18.1266L42.0544 18.329C41.9476 18.0161 41.7991 17.719 41.6128 17.4458V17.4671ZM42.4746 17.398L42.8682 17.2118C43.0648 17.4826 43.2324 17.7731 43.3683 18.0788L42.9374 18.2651C42.8229 17.9499 42.6673 17.6512 42.4746 17.3767V17.398ZM45.4855 22.7599L45.1344 22.228C46.9802 21.7811 47.5282 20.5683 47.5601 19.1905H44.6662V20.5737H43.9853V18.6056H45.7142V17.5895H46.4057V18.6056H47.709L48.3474 18.7809C48.241 20.7172 47.5814 22.212 45.4855 22.7599ZM49.656 18.6321L50.0443 18.0682C50.648 18.34 51.2161 18.6849 51.7359 19.0949L51.2944 19.6853C50.7938 19.268 50.2435 18.9142 49.656 18.6321ZM49.789 22.0259C50.6318 21.8989 51.4321 21.5726 52.1233 21.0739C52.8144 20.5752 53.3765 19.9184 53.7627 19.1586L54.2148 19.6905C53.7965 20.4755 53.2033 21.1541 52.4811 21.6734C51.7589 22.1927 50.927 22.539 50.0496 22.6856L49.789 22.0259ZM59.8588 22.3558H55.5287V18.2596H59.8588V22.3558ZM56.2203 18.8874V21.7173H59.1833V18.8874H56.2203ZM66.0614 20.5152H61.194V19.8131H66.0614V20.5152ZM67.7158 17.5895H68.402V19.3555C69.3073 19.7322 70.1853 20.1713 71.0299 20.6695L70.6468 21.276C69.9299 20.8178 69.1795 20.4142 68.402 20.0685V22.7282H67.7158V17.5895ZM69.3382 17.9617L69.7425 17.7703C69.9418 18.0621 70.1061 18.3764 70.2319 18.7066L69.7851 18.9087C69.6766 18.5755 69.5264 18.2573 69.3382 17.9617ZM70.1202 17.6692L70.5351 17.4723C70.7492 17.762 70.9278 18.0765 71.0671 18.4087L70.6203 18.6108C70.4927 18.2777 70.3247 17.9615 70.1202 17.6692ZM19.0474 14.9455C19.0524 14.3344 19.2134 13.7347 19.515 13.2032C19.8166 12.6717 20.2489 12.2259 20.7709 11.9081C20.4412 11.4338 20.0058 11.0427 19.4989 10.7658C18.992 10.4888 18.4277 10.3335 17.8505 10.3123C16.6217 10.1846 15.4301 11.0463 14.8024 11.0463C14.1747 11.0463 13.2065 10.3229 12.1426 10.3442C11.4711 10.367 10.8169 10.5633 10.2436 10.9138C9.67032 11.2643 9.1975 11.7572 8.87111 12.3445C7.45611 14.7915 8.51469 18.3927 9.86586 20.3716C10.5468 21.3397 11.3394 22.4248 12.3767 22.3822C13.414 22.3397 13.7704 21.7386 14.9939 21.7386C16.2174 21.7386 16.5897 22.3822 17.6217 22.3609C18.6537 22.3397 19.3931 21.3875 20.0474 20.4087C20.5341 19.718 20.9093 18.9551 21.1592 18.1479C20.5333 17.8782 19.9999 17.4314 19.6247 16.8624C19.2495 16.2935 19.0488 15.6271 19.0474 14.9455ZM17.0472 9.02497C17.6404 8.31214 17.9323 7.39629 17.8611 6.4717C16.9541 6.56931 16.1168 7.0041 15.5152 7.68989C15.2213 8.02455 14.9963 8.41365 14.853 8.83536C14.7097 9.25706 14.6509 9.70288 14.68 10.1473C15.1339 10.1518 15.5828 10.0532 15.9929 9.85874C16.403 9.6643 16.7635 9.37919 17.0472 9.02497Z" fill="white"/>
</g>
<defs>
<clipPath id="clip0_1189_13440">
<rect width="79.6175" height="29.2574" fill="white" transform="translate(0.928833 0.09375)"/>
</clipPath>
</defs>
</svg>
