<svg width="81" height="30" viewBox="0 0 81 30" fill="none" xmlns="http://www.w3.org/2000/svg">
<g id="google 1" clip-path="url(#clip0_1189_13454)">
<path id="Vector" d="M77.1562 0.09375H3.26963C1.63861 0.09375 0.316406 1.75968 0.316406 3.81472V26.1622C0.316406 28.2172 1.63861 29.8831 3.26963 29.8831H77.1562C78.7872 29.8831 80.1094 28.2172 80.1094 26.1622V3.81472C80.1094 1.75968 78.7872 0.09375 77.1562 0.09375Z" fill="#090000"/>
<path id="Vector_2" d="M77.1561 0.689591C77.8151 0.689591 78.4471 1.01939 78.9131 1.60649C79.379 2.19359 79.6408 2.98978 79.6408 3.82007V26.1621C79.6397 26.9915 79.3774 27.7863 78.9116 28.3723C78.4457 28.9582 77.8144 29.2873 77.1561 29.2873H3.28248C2.6246 29.2859 1.99392 28.9566 1.52833 28.3709C1.06273 27.7853 0.800086 26.991 0.797814 26.1621V3.82007C0.798951 2.99022 1.06109 2.19487 1.52681 1.60808C1.99253 1.02129 2.62385 0.691023 3.28248 0.689591H77.1561ZM77.1561 0.09375H3.28248C2.49914 0.0980258 1.74885 0.492052 1.19494 1.18996C0.641033 1.88787 0.328345 2.83309 0.324951 3.82007V26.1621C0.328352 27.1486 0.641174 28.0936 1.19521 28.7906C1.74924 29.4877 2.49953 29.8803 3.28248 29.8831H77.1561C77.9394 29.8817 78.6904 29.4893 79.2447 28.792C79.7989 28.0946 80.1114 27.149 80.1137 26.1621V3.82007C80.1114 2.83265 79.7991 1.88659 79.2449 1.18837C78.6908 0.490159 77.9398 0.096608 77.1561 0.09375Z" fill="#A7A7A6"/>
<path id="Vector_3" d="M38.5751 9.61947C38.141 9.62162 37.7172 9.78586 37.3571 10.0913C36.997 10.3967 36.7167 10.8297 36.5518 11.3356C36.3869 11.8415 36.3446 12.3976 36.4303 12.9338C36.516 13.4699 36.7259 13.9621 37.0335 14.3481C37.341 14.7341 37.7324 14.9967 38.1583 15.1026C38.5842 15.2086 39.0254 15.153 39.4263 14.9432C39.8272 14.7334 40.1697 14.3788 40.4107 13.9239C40.6517 13.469 40.7804 12.9343 40.7804 12.3874C40.7869 12.0207 40.7342 11.6562 40.6256 11.316C40.5169 10.9758 40.3546 10.6669 40.1484 10.4081C39.9422 10.1493 39.6964 9.94596 39.426 9.81042C39.1555 9.67488 38.8661 9.60985 38.5751 9.61947ZM38.5751 14.0665C38.3073 14.0904 38.04 14.0121 37.8079 13.8419C37.5759 13.6717 37.3899 13.4175 37.2742 13.1123C37.1585 12.807 37.1184 12.4649 37.1591 12.1306C37.1999 11.7962 37.3196 11.4849 37.5027 11.2375C37.6857 10.99 37.9237 10.8178 38.1856 10.7432C38.4474 10.6686 38.7211 10.695 38.9709 10.8191C39.2206 10.9432 39.435 11.159 39.586 11.4387C39.737 11.7185 39.8176 12.0491 39.8174 12.3874C39.829 12.8175 39.7048 13.2357 39.4718 13.5505C39.2389 13.8653 38.9164 14.0509 38.5751 14.0665ZM33.7648 9.61947C33.3307 9.62162 32.9069 9.78586 32.5468 10.0913C32.1867 10.3967 31.9065 10.8297 31.7415 11.3356C31.5766 11.8415 31.5343 12.3976 31.62 12.9338C31.7058 13.4699 31.9156 13.9621 32.2232 14.3481C32.5307 14.7341 32.9222 14.9967 33.348 15.1026C33.7739 15.2086 34.2151 15.153 34.616 14.9432C35.0169 14.7334 35.3595 14.3788 35.6005 13.9239C35.8414 13.469 35.9701 12.9343 35.9701 12.3874C35.9766 12.0207 35.9239 11.6562 35.8153 11.316C35.7066 10.9758 35.5443 10.6669 35.3381 10.4081C35.1319 10.1493 34.8861 9.94596 34.6157 9.81042C34.3452 9.67488 34.0558 9.60985 33.7648 9.61947ZM33.7648 14.0665C33.4969 14.0915 33.2292 14.014 32.9966 13.8446C32.7641 13.6751 32.5774 13.4213 32.461 13.1162C32.3446 12.8112 32.3039 12.469 32.3441 12.1343C32.3843 11.7996 32.5037 11.4881 32.6865 11.2401C32.8694 10.9921 33.1073 10.8191 33.3692 10.744C33.6312 10.6689 33.905 10.695 34.1551 10.8188C34.4051 10.9427 34.6197 11.1584 34.7709 11.4382C34.9222 11.718 35.003 12.0489 35.0029 12.3874C35.0145 12.8166 34.8908 13.234 34.6588 13.5486C34.4268 13.8633 34.1054 14.0495 33.7648 14.0665ZM28.0389 10.47V11.6453H30.27C30.2391 12.1965 30.0602 12.7179 29.7627 13.1239C29.5387 13.4087 29.2702 13.6317 28.9742 13.779C28.6782 13.9263 28.3612 13.9947 28.0432 13.9797C27.3854 13.9797 26.7545 13.6505 26.2893 13.0644C25.8242 12.4783 25.5628 11.6834 25.5628 10.8545C25.5628 10.0257 25.8242 9.23074 26.2893 8.64465C26.7545 8.05857 27.3854 7.72934 28.0432 7.72934C28.6695 7.71873 29.2736 8.0204 29.724 8.56875L30.3817 7.74018C30.0742 7.35667 29.7089 7.05463 29.3072 6.85184C28.9056 6.64906 28.4758 6.54953 28.0432 6.55934C27.5851 6.53885 27.1284 6.63504 26.7003 6.84179C26.2723 7.04855 25.8817 7.36182 25.5518 7.76293C25.222 8.16404 24.9596 8.64458 24.7804 9.17623C24.6013 9.70788 24.5089 10.2796 24.5089 10.8572C24.5089 11.4348 24.6013 12.0065 24.7804 12.5381C24.9596 13.0698 25.222 13.5506 25.5518 13.9517C25.8817 14.3528 26.2723 14.6661 26.7003 14.8728C27.1284 15.0796 27.5851 15.1755 28.0432 15.155C28.4644 15.1874 28.8863 15.1078 29.2815 14.9215C29.6767 14.7351 30.0363 14.4462 30.3371 14.0733C30.6379 13.7005 30.8731 13.2522 31.0274 12.7574C31.1817 12.2625 31.2517 11.7324 31.2329 11.2012C31.2351 10.956 31.2178 10.7109 31.1813 10.47H28.0389ZM51.4498 11.3798C51.3164 10.879 51.0644 10.442 50.7278 10.1272C50.3911 9.81251 49.986 9.6352 49.567 9.61947C49.2848 9.62193 49.0059 9.69648 48.7472 9.83845C48.4885 9.98042 48.2552 10.187 48.0616 10.4457C47.868 10.7043 47.7179 11.0098 47.6206 11.3435C47.5232 11.6772 47.4804 12.0323 47.495 12.3874C47.4886 12.7512 47.5405 13.1128 47.6475 13.4508C47.7546 13.7888 47.9146 14.0961 48.118 14.3545C48.3214 14.6128 48.5641 14.817 48.8315 14.9545C49.0989 15.0921 49.3856 15.1602 49.6744 15.155C50.0362 15.1576 50.3928 15.0473 50.7124 14.8337C51.032 14.6201 51.3045 14.3099 51.5057 13.9311L50.7577 13.3027C50.6449 13.537 50.4858 13.7306 50.2959 13.8644C50.1061 13.9982 49.892 14.0679 49.6744 14.0665C49.4505 14.0766 49.2293 14.0021 49.0393 13.8525C48.8493 13.7029 48.6992 13.4848 48.6083 13.2268L51.5487 11.6939L51.4498 11.3798ZM48.4407 12.3062C48.4296 12.1041 48.4507 11.901 48.5027 11.7093C48.5547 11.5176 48.6365 11.3409 48.7434 11.1896C48.8503 11.0383 48.9802 10.9154 49.1253 10.8281C49.2704 10.7408 49.4278 10.6909 49.5884 10.6813C49.7554 10.6689 49.9216 10.7182 50.0667 10.8231C50.2117 10.9279 50.3294 11.0838 50.4052 11.2716L48.4407 12.3062ZM46.0506 14.9871H47.0135V6.86269H46.0506V14.9871ZM44.4687 10.237H44.4343C44.2877 10.036 44.1086 9.87699 43.9092 9.77048C43.7097 9.66398 43.4945 9.61243 43.2779 9.61947C42.6953 9.61947 42.1366 9.91128 41.7246 10.4303C41.3127 10.9494 41.0813 11.6533 41.0813 12.3874C41.0813 13.1214 41.3127 13.8254 41.7246 14.3444C42.1366 14.8635 42.6953 15.155 43.2779 15.155C43.4954 15.1629 43.7115 15.1107 43.9113 15.0021C44.1111 14.8936 44.2895 14.7313 44.4343 14.5266H44.4687V14.9276C44.4687 15.9837 44.0388 16.5524 43.2951 16.5524C43.0534 16.5456 42.8189 16.4482 42.6213 16.2726C42.4238 16.0971 42.2722 15.8513 42.186 15.5668L41.3478 16.0053C41.507 16.4897 41.7774 16.9032 42.1244 17.1927C42.4713 17.4822 42.879 17.6344 43.2951 17.6301C44.4257 17.6301 45.3843 16.7907 45.3843 14.7488V9.77657H44.4687V10.237ZM43.3596 14.0665C43.0246 14.0325 42.7121 13.8407 42.4842 13.5296C42.2563 13.2185 42.1298 12.8108 42.1298 12.3874C42.1298 11.964 42.2563 11.556 42.4842 11.2449C42.7121 10.9337 43.0246 10.7422 43.3596 10.7083C43.6811 10.7648 43.9756 10.9659 44.1887 11.2745C44.4019 11.5831 44.5192 11.9783 44.5192 12.3874C44.5192 12.7964 44.4019 13.1917 44.1887 13.5002C43.9756 13.8088 43.6811 14.01 43.3596 14.0665ZM55.9592 6.85184H53.6464V14.9762H54.6137V11.8944H55.9592C56.2303 11.9102 56.5012 11.8566 56.7555 11.7368C57.0097 11.6169 57.242 11.4335 57.4383 11.1973C57.6347 10.9611 57.791 10.6771 57.8977 10.3626C58.0045 10.0482 58.0595 9.70972 58.0595 9.3677C58.0595 9.02569 58.0045 8.68723 57.8977 8.37278C57.791 8.05834 57.6347 7.77458 57.4383 7.5384C57.242 7.30221 57.0097 7.11846 56.7555 6.99862C56.5012 6.87878 56.2303 6.82518 55.9592 6.841V6.85184ZM55.9849 10.7733H54.6137V7.98402H55.9849C56.1361 7.97215 56.2876 7.99917 56.4301 8.06389C56.5726 8.12861 56.703 8.22942 56.8134 8.36009C56.9238 8.49076 57.0117 8.64855 57.0719 8.8237C57.132 8.99885 57.1631 9.18771 57.1631 9.37855C57.1631 9.56938 57.132 9.75825 57.0719 9.9334C57.0117 10.1085 56.9238 10.2663 56.8134 10.397C56.703 10.5277 56.5726 10.6285 56.4301 10.6932C56.2876 10.7579 56.1361 10.7852 55.9849 10.7733ZM61.9387 9.60334C61.587 9.57825 61.2372 9.68256 60.9319 9.90378C60.6265 10.125 60.3789 10.4534 60.2192 10.849L61.079 11.2986C61.1626 11.1067 61.2879 10.9489 61.4401 10.8434C61.5924 10.7379 61.7653 10.689 61.9387 10.7027C62.1832 10.6725 62.4272 10.7657 62.6173 10.9616C62.8074 11.1576 62.9282 11.4403 62.9532 11.7482V11.8349C62.6436 11.6271 62.298 11.5192 61.9473 11.5207C61.0274 11.5207 60.086 12.1598 60.086 13.3513C60.0952 13.6028 60.1443 13.8496 60.2304 14.0768C60.3165 14.304 60.4379 14.5071 60.5874 14.6742C60.7368 14.8413 60.9114 14.969 61.1006 15.0497C61.2899 15.1305 61.4901 15.1625 61.6894 15.1442C61.9321 15.1622 62.1742 15.098 62.3905 14.958C62.6067 14.8179 62.7892 14.6073 62.9188 14.3481H62.9532V14.9762H63.886V11.8566C63.9161 10.4104 63.0607 9.60334 61.9516 9.60334H61.9387ZM61.8226 14.0665C61.5088 14.0665 61.0704 13.8659 61.0704 13.373C61.0704 12.7447 61.6163 12.5064 62.0891 12.5064C62.3896 12.5005 62.686 12.5938 62.9489 12.7772C62.9145 13.1234 62.7837 13.443 62.5798 13.679C62.376 13.9151 62.1122 14.0525 61.8355 14.0665H61.8226ZM67.2906 9.78212L66.1859 13.308H66.1558L65.008 9.78212H63.9806L65.7001 14.711L64.72 17.4569H65.7259L68.3782 9.78212H67.2906ZM58.6072 14.9871H59.5959V6.86269H58.6287L58.6072 14.9871Z" fill="white"/>
<path id="Vector_4" d="M6.48503 5.6875C6.29185 5.9794 6.19491 6.35365 6.21421 6.73293V23.2036C6.19491 23.5829 6.29185 23.9571 6.48503 24.249L6.528 24.3032L13.8358 15.0956V14.8951L6.528 5.6875H6.48503Z" fill="url(#paint0_linear_1189_13454)"/>
<path id="Vector_5" d="M16.2948 18.1791L13.8531 15.1026V14.8968L16.2948 11.8203L16.3507 11.8637L19.2395 13.9329C20.0691 14.5232 20.0691 15.4927 19.2395 16.0994L16.3507 18.1466L16.2948 18.1791Z" fill="url(#paint1_linear_1189_13454)"/>
<path id="Vector_6" d="M16.3506 18.1449L13.853 14.998L6.48499 24.2816C6.7601 24.6445 7.20717 24.6877 7.71442 24.3302L16.3506 18.1449Z" fill="url(#paint2_linear_1189_13454)"/>
<path id="Vector_7" d="M16.3506 11.8458L7.71442 5.68745C7.53715 5.51362 7.31724 5.42334 7.09272 5.43224C6.86821 5.44114 6.65323 5.54858 6.48499 5.73611L13.853 15.0144L16.3506 11.8458Z" fill="url(#paint3_linear_1189_13454)"/>
<path id="Vector_8" opacity="0.2" d="M16.2948 18.0645L7.69733 24.2064C7.52742 24.3694 7.31978 24.4576 7.10625 24.4576C6.89272 24.4576 6.68508 24.3694 6.51518 24.2064L6.4679 24.2606L6.51089 24.3148C6.68108 24.4769 6.88861 24.5645 7.10196 24.5645C7.31532 24.5645 7.52284 24.4769 7.69304 24.3148L16.3507 18.1456L16.2948 18.0645Z" fill="#0A0000"/>
<path id="Vector_9" opacity="0.12" d="M6.48503 24.1626C6.29185 23.8707 6.19491 23.4967 6.21421 23.1174V23.2256C6.19491 23.6049 6.29185 23.9791 6.48503 24.271L6.53231 24.2168L6.48503 24.1626ZM19.2394 15.9787L16.2947 18.0857L16.3506 18.1561L19.2394 16.0872C19.4109 15.9938 19.5593 15.8438 19.669 15.6532C19.7787 15.4626 19.8456 15.2384 19.8627 15.0039C19.8261 15.2163 19.7507 15.4149 19.6425 15.5841C19.5343 15.7534 19.3963 15.8885 19.2394 15.9787Z" fill="#0A0000"/>
<path id="Vector_10" opacity="0.25" d="M7.71461 5.77062L19.2395 14.0251C19.3958 14.1136 19.5335 14.2468 19.6417 14.4141C19.75 14.5815 19.8257 14.7784 19.8628 14.9891C19.8471 14.7541 19.7807 14.5292 19.6709 14.3382C19.561 14.1473 19.4118 13.9978 19.2395 13.9058L7.71461 5.68943C6.88925 5.09906 6.21436 5.59194 6.21436 6.77268V6.88111C6.21436 5.68954 6.88925 5.18025 7.71461 5.77062Z" fill="white"/>
<path id="Vector_11" d="M25.0254 20.2241L27.3339 19.9533C27.9099 19.8937 28.4043 19.8612 28.7568 19.8395V20.3812C28.4106 20.3642 28.0642 20.4007 27.725 20.4896C27.3821 20.6493 27.0846 20.9338 26.8703 21.3071C26.656 21.6803 26.5345 22.1254 26.5214 22.5858C26.5214 23.8802 27.48 24.2917 28.3355 24.3296L28.1807 24.8713C27.2092 24.8171 26.0958 24.1618 26.0958 22.6778C26.1005 22.2321 26.1924 21.7946 26.3633 21.4044C26.5343 21.0142 26.7791 20.6834 27.0759 20.4409C26.6117 20.5059 25.1759 20.6845 24.6042 20.8308L24.5569 20.2405C24.7761 20.2513 24.9223 20.2349 25.0254 20.2241ZM28.4644 22.1198L28.1936 22.2824C28.0717 21.9518 27.9279 21.6348 27.7637 21.3346L28.0346 21.1883C28.1887 21.4867 28.3266 21.7978 28.4472 22.1198H28.4644ZM29.0706 21.8328L28.7954 21.9952C28.6672 21.6656 28.5146 21.3519 28.3398 21.0582L28.6063 20.9067C28.776 21.2042 28.9324 21.5134 29.0749 21.8328H29.0706ZM34.3365 23.0189H32.157V24.5084C32.157 24.8659 32.0711 25.0122 31.8733 25.0934C31.5126 25.1831 31.144 25.2124 30.7771 25.1802C30.7349 25.0073 30.6788 24.8401 30.6095 24.6816H31.5939C31.7186 24.6816 31.7573 24.6384 31.7573 24.4976V23.0189H29.5692V22.5315H31.7573V21.4483H29.9346V20.9717H31.7659V19.9424C31.1812 20.0237 30.5794 20.067 30.0464 20.0995C30.0251 19.9495 29.992 19.8025 29.9475 19.6608C31.1583 19.6343 32.3638 19.4528 33.5455 19.1191L33.8421 19.5145C33.2985 19.7032 32.7436 19.8354 32.1828 19.9099V20.9931H34.0657V21.47H32.1828V22.5532H34.3623L34.3365 23.0189ZM35.9528 19.6391C35.9119 19.7864 35.8775 19.9366 35.8497 20.0887C35.7101 20.9253 35.6253 21.7748 35.596 22.6289C35.5933 22.9349 35.6077 23.241 35.639 23.5444C35.7293 23.2411 35.8454 22.851 35.9313 22.591L36.1592 22.8024C36.0259 23.2736 35.8367 23.9777 35.7852 24.2918C35.7709 24.3902 35.7623 24.4897 35.7594 24.5896V24.8226L35.3768 24.8551C35.2389 24.1574 35.1739 23.4401 35.1833 22.7212C35.2105 21.8286 35.2895 20.9397 35.4198 20.0617C35.4198 19.91 35.4542 19.7312 35.4542 19.5904L35.9528 19.6391ZM37.1565 22.8566C37.1103 23.0555 37.0857 23.2613 37.0834 23.4685C37.0834 23.7719 37.2467 24.0644 37.9689 24.0644C38.4026 24.0676 38.8352 24.0093 39.2585 23.8909V24.4325C38.8259 24.5303 38.3869 24.5757 37.9474 24.5679C37.0619 24.5679 36.6578 24.1997 36.6578 23.5714C36.6639 23.3086 36.6913 23.0473 36.7395 22.7915L37.1565 22.8566ZM36.9458 20.1484C37.6599 20.2524 38.3811 20.2524 39.0952 20.1484V20.6901C38.3798 20.7596 37.6612 20.7596 36.9458 20.6901V20.1484ZM42.6803 19.4659C42.6288 20.5154 42.8072 21.5625 43.1962 22.4929C43.5851 23.4233 44.1695 24.2013 44.8856 24.7414C44.7658 24.8627 44.6589 25.0029 44.5675 25.1585C44.0315 24.7505 43.5677 24.2081 43.2046 23.5653C42.8416 22.9225 42.5871 22.1927 42.4568 21.421C42.3174 22.1911 42.0579 22.9186 41.6933 23.5611C41.3287 24.2036 40.8664 24.7484 40.3332 25.1638C40.2233 25.0196 40.104 24.8873 39.9764 24.7684C41.15 23.9993 41.8077 22.6507 42.1258 20.7713L42.3622 20.8199C42.3235 20.5112 42.302 20.2134 42.2891 19.9588H40.9995V19.4659H42.6803ZM50.0698 24.1292C49.9456 24.2978 49.7953 24.433 49.6283 24.5261C49.4613 24.6193 49.281 24.6683 49.0983 24.6708C48.7544 24.6708 48.5137 24.3786 48.5137 23.8261C48.5137 23.0895 48.7114 21.9952 48.7114 21.3507C48.7211 21.2768 48.7167 21.2012 48.6985 21.1299C48.6803 21.0586 48.6489 20.9937 48.6069 20.9408C48.5649 20.8878 48.5135 20.8484 48.4569 20.8255C48.4003 20.8026 48.3402 20.7969 48.2816 20.8091C47.8517 20.8091 47.2198 21.432 46.734 22.0928V22.8674C46.734 23.474 46.734 23.8748 46.7555 24.4923C46.7555 24.606 46.7555 24.7738 46.7856 24.893H46.3128V22.5424C46.0591 23.0298 45.7152 23.6688 45.453 24.1075L45.1865 23.6473C45.4788 23.1869 46.0892 22.1524 46.3514 21.6271C46.3514 21.4158 46.3729 21.199 46.3858 20.9931C46.1451 21.0256 45.6894 21.1069 45.3584 21.1611L45.3155 20.6195C45.43 20.6275 45.5448 20.6275 45.6593 20.6195C45.8313 20.6195 46.1408 20.5654 46.4116 20.5113C46.4116 20.1971 46.4374 19.9697 46.4374 19.8885C46.4429 19.7219 46.4357 19.5548 46.4159 19.39H46.9232C46.8974 19.5524 46.8544 19.9318 46.8157 20.3867H46.8415L46.9963 20.6195C46.9318 20.744 46.8415 20.923 46.7641 21.0854C46.6867 21.2479 46.7641 21.3291 46.7383 21.4591C47.1467 20.9825 47.8216 20.3486 48.3504 20.3486C48.4478 20.332 48.5469 20.3434 48.6405 20.3814C48.734 20.4195 48.8196 20.4835 48.891 20.5687C48.9623 20.6539 49.0176 20.7579 49.0527 20.8736C49.0879 20.9893 49.102 21.1135 49.094 21.237C49.094 21.9032 48.8963 23.0461 48.8963 23.7177C48.8963 23.9451 48.9823 24.1183 49.1671 24.1183C49.3217 24.1 49.4719 24.0427 49.6085 23.9496C49.7451 23.8565 49.8655 23.7297 49.9624 23.5767L50.0698 24.1292ZM53.036 21.2965C53.036 21.7298 53.0661 22.3799 53.0919 22.9486C53.6988 23.1675 54.2587 23.5563 54.7297 24.0861L54.4761 24.5788C54.0889 24.0932 53.6203 23.7231 53.1047 23.4955V23.9343C53.1047 24.4759 52.8382 24.9472 52.1375 24.9472C51.4368 24.9472 50.8737 24.6547 50.8737 23.8964C50.8737 23.3007 51.3036 22.8132 52.1977 22.8132C52.3416 22.815 52.4853 22.8295 52.6276 22.8566C52.6061 22.3149 52.5889 21.7083 52.5889 21.3129V20.0995C52.587 19.8782 52.5726 19.6576 52.5459 19.4389H53.0575C53.0575 19.5797 53.0231 19.8991 53.0145 20.0995C53.0059 20.2999 53.0145 20.5111 53.0145 20.7765C53.4444 20.7765 54.1021 20.7279 54.5749 20.6467V21.1558C54.1064 21.21 53.4315 21.2531 52.9973 21.264L53.036 21.2965ZM52.6749 23.3384C52.5051 23.295 52.3323 23.2734 52.159 23.2736C51.6174 23.2736 51.2993 23.5063 51.2993 23.8692C51.2993 24.2321 51.5916 24.4381 52.0988 24.4381C52.4857 24.4381 52.6706 24.2105 52.6706 23.7555C52.6792 23.6472 52.6749 23.5063 52.6749 23.3384ZM57.8763 21.47C57.3869 21.4929 56.903 21.6079 56.4406 21.8111C56.2815 21.8653 56.1267 21.9465 56.0107 22.006L55.8774 21.3888C56.0236 21.3888 56.2041 21.3291 56.3589 21.2912C56.8716 21.1068 57.3996 20.9977 57.9322 20.9662C58.6845 20.9662 59.2433 21.5079 59.2433 22.4395C59.2433 23.8856 58.2245 24.7034 56.8575 24.958L56.6082 24.4489C57.8978 24.2431 58.792 23.6147 58.792 22.4231C58.7963 21.8652 58.4395 21.47 57.8763 21.47ZM58.8092 19.7422L58.7447 20.2566C58.1601 20.2079 57.094 20.0724 56.5007 19.9424L56.5695 19.4333C57.3137 19.6195 58.0683 19.7319 58.8264 19.7692L58.8092 19.7422Z" fill="white" stroke="white" stroke-width="0.143627" stroke-miterlimit="10"/>
</g>
<defs>
<linearGradient id="paint0_linear_1189_13454" x1="13.2039" y1="6.58118" x2="1.03089" y2="16.2384" gradientUnits="userSpaceOnUse">
<stop stop-color="#3291D3"/>
<stop offset="0.01" stop-color="#3192D4"/>
<stop offset="0.26" stop-color="#30A9E0"/>
<stop offset="0.51" stop-color="#43ACD3"/>
<stop offset="0.76" stop-color="#49ADCE"/>
<stop offset="1" stop-color="#4BADCC"/>
</linearGradient>
<linearGradient id="paint1_linear_1189_13454" x1="20.3184" y1="14.9889" x2="6.01657" y2="14.9889" gradientUnits="userSpaceOnUse">
<stop stop-color="#F5D929"/>
<stop offset="0.41" stop-color="#E7B331"/>
<stop offset="0.78" stop-color="#DF9C33"/>
<stop offset="1" stop-color="#DC9333"/>
</linearGradient>
<linearGradient id="paint2_linear_1189_13454" x1="14.9922" y1="16.6988" x2="-1.51268" y2="29.7981" gradientUnits="userSpaceOnUse">
<stop stop-color="#CA474E"/>
<stop offset="1" stop-color="#B61E5E"/>
</linearGradient>
<linearGradient id="paint3_linear_1189_13454" x1="4.63223" y1="0.227795" x2="12.0012" y2="6.07625" gradientUnits="userSpaceOnUse">
<stop stop-color="#35976D"/>
<stop offset="0.07" stop-color="#339E6D"/>
<stop offset="0.48" stop-color="#3DA168"/>
<stop offset="0.8" stop-color="#43A262"/>
<stop offset="1" stop-color="#44A260"/>
</linearGradient>
<clipPath id="clip0_1189_13454">
<rect width="79.793" height="29.7894" fill="white" transform="translate(0.316406 0.09375)"/>
</clipPath>
</defs>
</svg>
