<svg width="65" height="65" viewBox="0 0 65 65" fill="none" xmlns="http://www.w3.org/2000/svg">
<g id="qr 1">
<g clip-path="url(#clip0_1189_13431)">
<rect x="0.820312" y="0.875" width="63.8344" height="63.8344" rx="5.31953" fill="#FCEBDC"/>
<path id="Vector" d="M0.820312 0.875H64.6547V64.7094H0.820312V0.875Z" fill="white"/>
<path id="Vector_2" d="M6.3717 12.7884V19.1529H19.1008V6.42383H6.3717V12.7884ZM17.2827 12.7884V17.3348H8.1898V8.24193H17.2827V12.7884Z" fill="black"/>
<path id="Vector_3" d="M10.0077 12.7889V15.5172H15.4643V10.0605H10.0077V12.7889Z" fill="black"/>
<path id="Vector_4" d="M20.9165 7.33406V8.24193H22.7346V10.06H20.9165V15.5167H22.7346V13.6962H26.3708V15.5167H24.5527V24.6072H22.737V20.971H20.9165V22.7891H19.0984V20.971H17.2827V22.7891H19.1008V24.6072H13.6465V28.2434H10.0079V26.4253H8.1898V24.6072H6.3717V28.2434H8.1898V30.0615H6.3717V31.8796H10.0079V33.6977H6.3717V37.3362H10.0079V35.5181H11.8284V37.3362H13.6465V39.1591H10.0079V42.7953H8.1898V44.6134H15.4646V42.7953H17.2827V44.6134H20.9165V46.4315H24.5527V48.2496H26.3708V51.8858H24.5527V50.0677H22.737V51.8858H20.9165V59.1605H22.7346V57.3424H24.5527V59.1605H28.1889V57.3424H31.8251V55.522H33.6456V53.6991H40.9179V51.881H39.0998V50.0629H37.2817V48.2448H39.0998V46.4267H37.2817V44.6086H42.7384V46.4267H40.9203V48.2448H42.7384V57.3377H40.9203V55.5172H39.1022V57.3377H40.9203V59.1558H44.5589V57.3377H46.377V51.881H50.0132V53.6991H48.1951V59.1558H50.0132V57.3377H53.6494V55.5172H55.4698V59.1558H57.2879V55.5172H59.106V50.0629H53.647V46.4267H55.4675V48.2448H57.2856V46.4267H59.1037V44.6086H55.4675V39.1591H57.2856V33.6977H59.1037V30.0615H55.4675V28.2434H51.8289V30.0615H53.647V33.6977H55.4675V37.3362H53.647V35.5181H51.8289V33.6977H50.0108V37.3362H48.1927V39.1591H50.0108V40.9772H48.1927V42.7953H40.9203V39.1591H39.1022V40.9772H35.466V39.1591H37.2841V35.5181H35.466V33.6977H33.6479V35.5181H28.1913V31.8796H30.0094V30.0615H31.8275V26.4253H33.6479V22.7891H31.8275V24.6072H30.0094V17.3348H31.8275V20.971H37.2841V22.7891H40.9203V24.6072H44.5589V26.4253H48.1951V22.7891H46.377V20.971H44.5589V22.7891H40.9203V20.971H42.7384V19.1529H44.5589V15.5167H42.7384V11.8781H44.5589V10.06H40.9203V8.24193H42.7384V6.42383H37.2841V8.24193H35.466V10.06H31.8275V8.24193H33.6479V6.42383H31.8275V8.24193H30.0094V6.42383H28.1913V8.24193H26.3732V6.42383H24.5551V8.24193H22.737V6.42383H20.9165V7.33406ZM39.0998 10.06V11.8781H40.9179V17.3348H42.736V19.1529H40.9179V20.971H39.0998V19.1529H37.2817V17.3348H35.4636V19.1529H33.6456V17.3348H31.8251V15.5167H30.007V17.3348H28.1889V20.971H26.3708V17.3348H28.1889V15.5167H30.007V13.6962H31.8251V11.8781H33.6456V15.5167H35.4636V13.6962H39.0998V11.8781H37.2817V8.24193H39.0998V10.06ZM30.007 10.9703V11.8781H28.1889V13.6962H26.3708V10.06H30.007V10.9703ZM28.1889 23.6969V24.6072H26.3708V22.7891H28.1889V23.6969ZM22.7346 25.5174V26.4253H19.1008V28.2434H17.2827V30.0615H19.1008V31.8796H17.2827V33.6977H19.1008V35.5181H20.9165V37.3362H19.0984V39.1591H17.2827V37.341H19.1008V35.5181H15.4646V37.3362H13.6465V35.5181H11.8284V31.8796H10.0079V30.0615H11.8284V31.8796H13.6465V28.2434H17.2827V26.4253H19.1008V24.6072H22.737L22.7346 25.5174ZM30.0094 27.3379V28.2457H28.1913V30.0638H26.3732V33.6977H24.5551V31.8796H22.737V30.0615H26.3732V26.4253H30.0094V27.3379ZM24.5551 36.4284V37.3386H22.737V35.5181H24.5551V36.4284ZM28.1913 36.4284V37.3386H30.0094V40.9748H31.8275V42.7929H33.6479V40.9748H35.466V50.0653H37.2841V51.8834H30.0094V53.7015H31.8275V55.5196H30.0094V53.6991H28.1913V57.3377H26.3732V53.6991H28.1913V50.0629H31.8275V48.2448H26.3732V46.4267H24.5551V44.6086H20.9165V42.7905H17.2827V40.9724H20.9165V42.7905H24.5527V44.6086H26.3708V42.7905H28.1889V40.9724H22.737V39.1591H26.3732V35.5181H28.1913V36.4284ZM35.466 36.4284V37.3386H33.6479V35.5181H35.466V36.4284ZM51.8289 38.2465V39.1591H53.647V42.7953H50.0108V40.9772H51.8289V39.1591H50.0108V37.341H51.8289V38.2465ZM15.4646 40.0622V40.9724H13.6465V42.7905H11.8284V40.9724H13.6465V39.1591H15.4646V40.0622ZM50.0108 47.337V50.0629H44.5589V44.6086H50.0132L50.0108 47.337ZM53.647 50.9803V51.8881H57.2856V55.5243H55.4675V53.6991H53.647V55.5172H50.0108V53.6991H53.647V51.881H51.8289V50.0629H53.647V50.9803ZM24.5669 52.7984V53.7062H22.737V51.8881H24.5551L24.5669 52.7984Z" fill="black"/>
<path id="Vector_5" d="M37.2841 16.4245V17.3348H39.1022V19.1529H40.9203V17.3348H39.1022V15.5167H37.2841V16.4245ZM13.6465 34.6079V35.5181H15.4646V33.6976H13.6465V34.6079ZM31.8275 46.4267V48.2448H33.6479V44.6086H31.8275V46.4267ZM46.3746 47.3369V48.2448H48.1927V46.4267H46.3746V47.3369ZM46.3746 12.7884V19.1529H59.1037V6.42383H46.3746V12.7884ZM57.2856 12.7884V17.3348H48.1927V8.24193H57.2856V12.7884Z" fill="black"/>
<path id="Vector_6" d="M50.0108 12.7889V15.5172H55.4675V10.0605H50.0108V12.7889ZM20.9165 18.2432V19.1534H22.7346V17.3353H20.9165V18.2432ZM6.3717 21.8794V22.7896H13.6465V20.9715H6.3717V21.8794ZM50.0108 23.6975V26.4258H51.8289V22.7896H55.4675V20.9715H50.0108V23.6975Z" fill="black"/>
<path id="Vector_7" d="M57.2856 22.7908V24.6089H53.647V26.427H57.2856V28.2451H59.1037V26.427H57.2856V24.6089H59.1037V20.9727H57.2856V22.7908ZM35.466 25.5191V26.427H39.1022V24.6089H35.466V25.5191ZM33.6479 30.0632V31.8813H35.466V30.0632H40.9203V31.8813H37.2841V33.6994H40.9203V35.5198H39.1022V37.3379H44.5589V39.1607H42.7384V40.9789H46.3746V35.5198H44.5589V33.6994H42.7384V30.0632H40.9203V28.2451H33.6479V30.0632ZM48.1927 29.1553V30.0632H46.3746V33.6994H48.1927V30.0632H50.0108V28.2451H48.1927V29.1553ZM6.3717 40.0639V40.9741H8.1898V39.1607H6.3717V40.0639ZM6.3717 52.793V59.1575H19.1008V46.4284H6.3717V52.793ZM17.2827 52.793V57.3394H8.1898V48.2465H17.2827V52.793Z" fill="black"/>
<path id="Vector_8" d="M10.0077 52.7928V55.5188H15.4643V50.0645H10.0077V52.7928ZM35.4658 56.4195V57.3298H33.6477V59.1479H35.4658V57.3298H37.2839V55.5093H35.4658V56.4195Z" fill="black"/>
</g>
</g>
<defs>
<clipPath id="clip0_1189_13431">
<rect x="0.820312" y="0.875" width="63.8344" height="63.8344" rx="5.31953" fill="white"/>
</clipPath>
</defs>
</svg>
