<svg width="65" height="65" viewBox="0 0 65 65" fill="none" xmlns="http://www.w3.org/2000/svg">
<g id="qr2 1">
<g clip-path="url(#clip0_1189_13445)">
<path id="Vector" d="M0.295776 0.875H64.1302V64.7094H0.295776V0.875Z" fill="white"/>
<path id="Vector_2" d="M5.96997 11.5137V16.4786H15.8998V6.54883H5.96997V11.5137ZM14.4812 11.5137V15.0601H7.38851V7.96737H14.4812V11.5137Z" fill="black"/>
<path id="Vector_3" d="M8.80713 11.5137V13.6415H13.0628V9.38591H8.80713V11.5137ZM17.3184 7.2581V7.96737H18.7369V9.38591H20.1555V10.8045H21.574V7.96737H24.4111V6.54883H21.574V7.96737H18.7369V6.54883H17.3184V7.2581Z" fill="black"/>
<path id="Vector_4" d="M27.2481 7.2581V7.96737H28.6667V9.38591H27.2481V10.8045H28.6667V12.223H25.8296V13.6415H27.2481V15.0601H25.8296V16.4786H24.411V13.6415H22.9925V12.223H24.411V9.38591H22.9925V12.223H21.5739V13.6415H20.1554V12.223H18.7369V13.6415H20.1554V17.8972H18.7369V15.0601H17.3183V17.8972H18.7369V19.3157H22.9925V20.7343H21.5739V22.1528H20.1554V20.7343H18.7369V22.1528H20.1554V24.9899H17.3183V26.4084H14.4812V24.9899H15.8998V23.5713H17.3183V22.1528H15.8998V20.7343H14.4812V19.3157H15.8998V17.8972H14.4812V19.3157H13.0627V17.8972H10.2256V20.7343H8.80706V17.8972H5.96997V19.3157H7.38851V20.7343H5.96997V23.5713H7.38851V20.7343H8.80706V22.1528H13.0627V23.5713H11.6441V24.9899H10.2256V23.5713H8.80706V26.4084H7.38851V24.9899H5.96997V27.827H8.80706V26.4084H11.6441V27.827H10.2256V29.2455H7.38851V30.6641H5.96997V32.0826H7.38851V30.6641H10.2256V29.2455H11.6441V27.827H13.0627V26.4084H14.4812V27.827H15.8998V29.2455H13.0627V30.6641H15.8998V32.0826H13.0627V33.5011H15.8998V34.9197H13.0627V36.3382H11.6441V34.9197H7.38851V33.5011H5.96997V34.9197H7.38851V36.3382H10.2256V39.1753H11.6441V37.7568H13.0627V40.5938H8.80706V42.0124H5.96997V47.6866H7.38851V44.8495H10.2256V43.4309H11.6441V42.0124H18.7369V43.4309H17.3183V46.268H14.4812V44.8495H15.8998V43.4309H13.0627V44.8495H11.6441V46.268H8.80706V47.6866H17.3183V49.1051H18.7369V51.9422H17.3183V54.7793H18.7369V56.1978H17.3183V59.0349H18.7369V56.1978H20.1554V59.0349H25.8296V50.5236H28.6667V51.9422H27.2481V56.1978H28.6667V51.9422H30.0852V53.3607H31.5037V51.9422H30.0852V49.1051H31.5037V50.5236H32.9223V54.7793H34.3408V56.1978H32.9223V57.6164H34.3408V59.0349H35.7594V56.1978H37.1779V59.0349H40.015V57.6164H41.4335V56.1978H40.015V54.7793H44.2706V57.6164H45.6892V59.0349H47.1077V57.6164H45.6892V53.3607H48.5262V54.7793H47.1077V56.1978H48.5262V54.7793H49.9448V56.1978H51.3633V57.6164H52.7819V59.0349H54.2004V57.6164H57.0375V59.0349H58.456V51.9422H57.0375V53.3607H55.619V54.7793H57.0375V56.1978H54.2004V57.6164H52.7819V54.7793H49.9448V53.3607H52.7819V51.9422H54.2004V50.5236H55.619V49.1051H57.0375V50.5236H58.456V49.1051H57.0375V46.268H58.456V43.4309H57.0375V42.0124H58.456V37.7568H57.0375V36.3382H58.456V32.0826H57.0375V34.9197H55.619V36.3382H54.2004V37.7568H52.7819V34.9197H54.2004V33.5011H52.7819V34.9197H48.5262V33.5011H49.9448V32.0826H51.3633V30.6641H49.9448V29.2455H52.7819V32.0826H54.2004V30.6641H58.456V26.4084H57.0375V24.9899H58.456V23.5713H55.619V22.1528H58.456V20.7343H57.0375V19.3157H58.456V17.8972H57.0375V19.3157H55.619V20.7343H52.7819V19.3157H49.9448V17.8972H48.5262V19.3157H49.9448V20.7343H48.5262V23.5713H45.6892V22.1528H47.1077V20.7343H45.6892V19.3157H47.1077V17.8972H44.2706V19.3157H41.4335V17.8972H42.8521V16.4786H44.2706V15.0601H42.8521V13.6415H41.4335V12.223H42.8521V9.38591H44.2706V10.8045H47.1077V9.38591H44.2706V7.96737H42.8521V6.54883H41.4335V7.96737H40.015V9.38591H38.5964V12.223H37.1779V9.38591H35.7594V7.96737H38.5964V6.54883H35.7594V7.96737H32.9223V6.54883H31.5037V7.96737H30.0852V6.54883H27.2481V7.2581ZM32.9223 8.67664V9.38591H31.5037V10.8045H32.9223V12.223H31.5037V10.8045H30.0852V9.38591H31.5037V7.96737H32.9223V8.67664ZM41.4335 10.0952V10.8045H40.015V9.38591H41.4335V10.0952ZM35.7594 12.9323V13.6415H34.3408V16.4786H35.7594V15.0601H37.1779V17.8972H38.5964V15.0601H40.015V13.6415H38.5964V12.223H40.015V13.6415H41.4335V15.0601H42.8521V16.4786H41.4335V17.8972H38.5964V19.3157H35.7594V22.1528H37.1779V20.7343H38.5964V22.1528H40.015V19.3157H41.4335V22.1528H42.8521V20.7343H44.2706V22.1528H42.8521V23.5713H45.6892V24.9899H51.3633V23.5713H52.7819V22.1528H54.2004V23.5713H55.619V24.9899H54.2004V23.5713H52.7819V24.9899H51.3633V27.827H49.9448V29.2455H48.5262V30.6641H49.9448V32.0826H48.5262V30.6641H47.1077V32.0826H45.6892V29.2455H44.2706V34.9197H42.8521V36.3382H44.2706V40.5938H45.6892V39.1753H47.1077V37.7568H45.6892V33.5011H47.1077V36.3382H49.9448V40.5938H48.5262V42.0124H51.3633V40.5938H52.7819V42.0124H51.3633V44.8495H48.5262V43.4309H47.1077V40.5938H45.6892V42.0124H41.4335V44.8495H42.8521V43.4309H44.2706V44.8495H47.1077V46.268H44.2706V49.1051H45.6892V50.5236H44.2706V51.9422H42.8521V53.3607H40.015V49.1051H37.1779V50.5236H38.5964V53.3607H37.1779V54.7793H34.3408V51.9422H35.7594V50.5236H34.3408V49.1051H35.7594V47.6866H32.9223V49.1051H31.5037V47.6866H30.0852V49.1051H28.6667V46.268H27.2481V49.1051H22.9925V50.5236H24.411V53.3607H22.9925V54.7793H24.411V56.1978H22.9925V54.7793H21.5739V56.1978H20.1554V54.7793H21.5739V53.3607H18.7369V51.9422H21.5739V53.3607H22.9925V50.5236H20.1554V47.6866H18.7369V43.4309H21.5739V42.0124H20.1554V40.5938H21.5739V39.1753H18.7369V34.9197H17.3183V37.7568H13.0627V36.3382H15.8998V34.9197H17.3183V33.5011H18.7369V32.0826H20.1554V29.2455H17.3183V30.6641H15.8998V29.2455H17.3183V27.827H18.7369V26.4084H20.1554V24.9899H24.411V26.4084H21.5739V27.827H20.1554V29.2455H22.9925V27.827H25.8296V26.4084H27.2481V24.9899H25.8296V16.4786H27.2481V15.0601H28.6667V16.4786H27.2481V17.8972H30.0852V15.0601H31.5037V13.6415H34.3408V12.223H35.7594V12.9323ZM22.9925 15.0601V16.4786H24.411V19.3157H22.9925V16.4786H21.5739V13.6415H22.9925V15.0601ZM13.0627 20.025V20.7343H11.6441V19.3157H13.0627V20.025ZM24.411 21.4435V22.1528H22.9925V20.7343H24.411V21.4435ZM51.3633 21.4435V22.1528H49.9448V20.7343H51.3633V21.4435ZM15.8998 22.8621V23.5713H14.4812V24.9899H13.0627V26.4084H11.6441V24.9899H13.0627V23.5713H14.4812V22.1528H15.8998V22.8621ZM55.619 27.1177V27.827H57.0375V29.2455H55.619V27.827H54.2004V29.2455H52.7819V26.4084H55.619V27.1177ZM52.7819 38.466V39.1753H51.3633V37.7568H52.7819V38.466ZM57.0375 38.466V39.1753H54.2004V37.7568H57.0375V38.466ZM15.8998 39.8846V40.5938H14.4812V39.1753H15.8998V39.8846ZM57.0375 41.3031V42.0124H54.2004V40.5938H57.0375V41.3031ZM57.0375 45.5587V46.268H55.619V44.8495H57.0375V45.5587ZM51.3633 49.8144V51.9422H47.1077V47.6866H51.3633V49.8144ZM54.2004 49.1051V50.5236H52.7819V47.6866H54.2004V49.1051ZM40.015 56.9071V57.6164H38.5964V56.1978H40.015V56.9071Z" fill="black"/>
<path id="Vector_5" d="M31.5039 15.7679V16.4771H32.9224V20.7328H31.5039V22.1513H30.0853V19.3142H31.5039V17.8957H30.0853V19.3142H28.6668V20.7328H27.2482V22.1513H28.6668V23.5698H27.2482V24.9884H28.6668V27.8255H27.2482V29.244H25.8297V30.6626H21.5741V33.4996H22.9926V36.3367H25.8297V40.5924H24.4111V42.0109H22.9926V43.4294H24.4111V42.0109H27.2482V43.4294H25.8297V44.848H22.9926V46.2665H21.5741V44.848H20.1555V47.6851H21.5741V49.1036H22.9926V47.6851H24.4111V46.2665H27.2482V44.848H28.6668V46.2665H30.0853V44.848H31.5039V46.2665H35.7595V44.848H37.178V47.6851H38.5966V43.4294H40.0151V42.0109H41.4337V40.5924H40.0151V39.1738H41.4337V36.3367H40.0151V34.9182H38.5966V33.4996H40.0151V32.0811H37.178V36.3367H35.7595V37.7553H37.178V40.5924H38.5966V42.0109H37.178V43.4294H32.9224V42.0109H30.0853V40.5924H31.5039V39.1738H30.0853V40.5924H28.6668V34.9182H30.0853V37.7553H34.3409V34.9182H35.7595V33.4996H34.3409V32.0811H35.7595V30.6626H28.6668V32.0811H27.2482V29.244H28.6668V27.8255H32.9224V29.244H35.7595V26.4069H30.0853V23.5698H31.5039V22.1513H32.9224V24.9884H34.3409V23.5698H35.7595V22.1513H32.9224V20.7328H34.3409V16.4771H32.9224V15.0586H31.5039V15.7679ZM27.2482 32.7904V33.4996H28.6668V34.9182H27.2482V33.4996H25.8297V34.9182H24.4111V33.4996H22.9926V32.0811H27.2482V32.7904ZM31.5039 32.7904V33.4996H34.3409V34.9182H32.9224V36.3367H31.5039V34.9182H30.0853V32.0811H31.5039V32.7904ZM28.6668 41.3016V42.0109H27.2482V40.5924H28.6668V41.3016ZM30.0853 44.1387V44.848H28.6668V43.4294H30.0853V44.1387ZM32.9224 44.1387V44.848H31.5039V43.4294H32.9224V44.1387ZM40.0151 15.7679V16.4771H41.4337V15.0586H40.0151V15.7679Z" fill="black"/>
<path id="Vector_6" d="M40.0151 24.2806V24.9899H38.5965V26.4084H37.178V27.827H38.5965V29.2455H37.178V30.6641H42.8522V29.2455H44.2707V27.827H45.6892V24.9899H41.4336V23.5713H40.0151V24.2806ZM41.4336 26.4084V27.827H42.8522V29.2455H41.4336V27.827H38.5965V26.4084H40.0151V24.9899H41.4336V26.4084ZM47.1078 27.1177V27.827H48.5263V26.4084H47.1078V27.1177ZM41.4336 33.5011V34.9197H42.8522V32.0826H41.4336V33.5011ZM18.7369 34.2104V34.9197H20.1555V33.5011H18.7369V34.2104ZM22.9926 38.466V39.1753H24.4111V37.7568H22.9926V38.466ZM34.3409 41.3031V42.0124H35.7594V40.5939H34.3409V41.3031ZM40.0151 46.268V47.6866H41.4336V51.9422H42.8522V50.5237H44.2707V49.1051H42.8522V46.268H41.4336V44.8495H40.0151V46.268ZM48.5263 49.8144V50.5237H49.9449V49.1051H48.5263V49.8144ZM48.5263 11.5137V16.4786H58.4561V6.54883H48.5263V11.5137ZM57.0376 11.5137V15.0601H49.9449V7.96737H57.0376V11.5137Z" fill="black"/>
<path id="Vector_7" d="M51.3633 11.5145V13.6423H55.619V9.38672H51.3633V11.5145ZM45.6892 12.9331V13.6423H47.1077V12.2238H45.6892V12.9331ZM45.6892 15.7702V16.4794H47.1077V15.0609H45.6892V15.7702ZM8.80706 32.7927V33.5019H10.2256V32.0834H8.80706V32.7927ZM7.38851 38.4668V39.1761H8.80706V37.7576H7.38851V38.4668ZM5.96997 54.0708V59.0357H15.8998V49.1059H5.96997V54.0708ZM14.4812 54.0708V57.6172H7.38851V50.5245H14.4812V54.0708Z" fill="black"/>
<path id="Vector_8" d="M8.80713 54.0692V56.197H13.0628V51.9414H8.80713V54.0692ZM30.0853 56.197V57.6156H28.6667V59.0341H30.0853V57.6156H31.5038V54.7785H30.0853V56.197Z" fill="black"/>
</g>
</g>
<defs>
<clipPath id="clip0_1189_13445">
<rect x="0.295776" y="0.875" width="63.8344" height="63.8344" rx="5.31953" fill="white"/>
</clipPath>
</defs>
</svg>
